<svg width="601" height="543" viewBox="0 0 601 543" fill="none" xmlns="http://www.w3.org/2000/svg">
<path d="M501.844 194.371C508.033 192.916 513.652 189.657 517.989 185.008L528.336 188.515L533.487 179.577L525.298 172.371C527.138 166.274 527.138 159.77 525.298 153.673L533.487 146.466L528.336 137.513L517.989 141.021C513.655 136.371 508.035 133.116 501.844 131.672L499.701 120.958H494.535" stroke="#263238" stroke-miterlimit="10"/>
<path d="M489.339 120.958L487.196 131.672C481.007 133.12 475.388 136.374 471.052 141.021L460.778 137.513L455.627 146.466L463.816 153.673C461.976 159.77 461.976 166.274 463.816 172.371L455.583 179.577L460.734 188.515L471.008 185.008C475.347 189.654 480.964 192.912 487.152 194.371L489.295 205.071H499.569L501.712 194.371" stroke="#263238" stroke-miterlimit="10"/>
<path d="M493.875 180.237C475.47 178.946 472.021 152.146 490.411 147.435" stroke="#263238" stroke-miterlimit="10"/>
<path d="M505.484 151.133C514.642 159.514 511.751 175.893 499.613 179.592" stroke="#263238" stroke-miterlimit="10"/>
<path d="M496.678 147.068C498.279 147.258 499.843 147.688 501.316 148.345" stroke="#263238" stroke-miterlimit="10"/>
<path d="M556.676 202.517L558.848 199.919C562.894 201.028 567.177 200.921 571.162 199.611L576.035 204.88" stroke="#263238" stroke-miterlimit="10"/>
<path d="M548.648 161.848L549.602 164.416C546.62 167.363 544.577 171.127 543.731 175.233L536.73 176.833L536.891 183.628L543.98 184.861C544.509 186.877 545.33 188.806 546.417 190.585C547.504 192.364 548.849 193.971 550.409 195.355L548.281 202.224L554.254 205.467" stroke="#263238" stroke-miterlimit="10"/>
<path d="M576.035 204.88L581.803 201.328L579.338 194.577C582.315 191.627 584.357 187.864 585.208 183.76L592.209 182.175L592.033 175.38L584.959 174.147C583.9 170.09 581.663 166.439 578.53 163.653L580.659 156.784L574.685 153.541L570.062 159.059C566.023 157.935 561.74 158.043 557.763 159.367L552.875 154.098L547.078 157.65" stroke="#263238" stroke-miterlimit="10"/>
<path d="M575.168 176.994C577.179 185.418 569.166 193.534 560.697 190.115C552.625 186.842 551.451 174.998 558.951 170.448" stroke="#263238" stroke-miterlimit="10"/>
<path d="M568.242 169.42C569.93 170.019 571.443 171.028 572.645 172.356" stroke="#263238" stroke-miterlimit="10"/>
<path d="M103.075 343.841L114.112 354.863C113.644 356.833 113.688 358.89 114.239 360.838C114.791 362.786 115.832 364.56 117.264 365.992C118.696 367.423 120.47 368.465 122.418 369.016C124.366 369.568 126.423 369.612 128.393 369.143L121.465 362.231L123.344 355.215L130.345 353.337L137.272 360.264C137.741 358.294 137.697 356.237 137.145 354.289C136.593 352.341 135.552 350.567 134.12 349.135C132.689 347.703 130.914 346.662 128.966 346.111C127.018 345.559 124.961 345.515 122.992 345.983L112.835 335.827" stroke="#263238" stroke-miterlimit="10"/>
<path d="M96.7056 319.74L86.5933 309.628C87.042 307.662 86.9833 305.614 86.4225 303.677C85.8617 301.74 84.8174 299.977 83.3877 298.555C81.9581 297.132 80.1901 296.097 78.2501 295.546C76.3101 294.995 74.2618 294.947 72.2981 295.406L79.2255 302.334L77.3469 309.334L70.3461 311.213L63.4186 304.212C62.9548 306.183 63.0021 308.24 63.5562 310.188C64.1102 312.136 65.1526 313.91 66.5845 315.341C68.0164 316.773 69.7903 317.816 71.738 318.37C73.6857 318.924 75.7427 318.971 77.7138 318.507L87.8261 328.62" stroke="#263238" stroke-miterlimit="10"/>
<path d="M108.065 330.382L122.17 316.278C122.866 315.586 123.663 315.002 124.533 314.546L127.365 313.078L137.639 301.337L131.225 295.026L119.484 305.3L118.016 308.132C117.569 309.008 116.984 309.805 116.284 310.495L105.101 321.694" stroke="#263238" stroke-miterlimit="10"/>
<path d="M70.5222 367.322C71.4797 367.931 72.6223 368.179 73.746 368.023C74.8697 367.867 75.9015 367.317 76.6571 366.471L101.094 342.034C101.678 341.509 102.118 340.845 102.375 340.103C102.632 339.361 102.696 338.566 102.562 337.793L106.803 333.551L107.067 333.801C107.212 333.947 107.385 334.064 107.575 334.144C107.765 334.223 107.969 334.264 108.176 334.264C108.382 334.264 108.586 334.223 108.776 334.144C108.966 334.064 109.139 333.947 109.284 333.801C109.573 333.504 109.735 333.107 109.735 332.692C109.735 332.278 109.573 331.88 109.284 331.584L100.918 323.219C100.622 322.925 100.222 322.76 99.8046 322.762C99.3876 322.763 98.9882 322.93 98.6944 323.226C98.4005 323.522 98.2361 323.922 98.2375 324.339C98.2389 324.756 98.4059 325.156 98.7017 325.449L98.9659 325.699L94.7243 329.941C93.9508 329.805 93.1555 329.868 92.4134 330.125C91.6713 330.382 91.0068 330.823 90.4827 331.408L66.0752 355.948C65.5133 356.448 65.079 357.075 64.8084 357.777C64.5378 358.479 64.4388 359.236 64.5194 359.984" stroke="#263238" stroke-miterlimit="10"/>
<path d="M65.5029 362.568C66.0759 363.482 66.7559 364.324 67.5283 365.078C68.3889 365.985 69.3779 366.761 70.4637 367.382" stroke="#263238" stroke-miterlimit="10"/>
<path d="M73.0173 359.97L77.2883 355.699" stroke="#263238" stroke-miterlimit="10"/>
<path d="M83.0557 349.93L101.108 331.496" stroke="#263238" stroke-miterlimit="10"/>
<path d="M476.952 38.21H85.6685V292.412H476.952V38.21Z" fill="white"/>
<path d="M476.952 38.21H85.6685V292.412H127.042H192.633H476.952V38.21Z" fill="#BFBFBF"/>
<path d="M476.952 38.21H85.6685V71.4676H476.952V38.21Z" fill="white"/>
<path d="M476.952 38.21H85.6685V71.4676H476.952V38.21Z" fill="#757575"/>
<path d="M464.961 43.5093H449.991C447.867 43.5093 446.146 45.2309 446.146 47.3546V62.3249C446.146 64.4486 447.867 66.1702 449.991 66.1702H464.961C467.085 66.1702 468.806 64.4486 468.806 62.3249V47.3546C468.806 45.2309 467.085 43.5093 464.961 43.5093Z" fill="white"/>
<path d="M437.163 43.5093H422.251C420.111 43.5093 418.377 45.244 418.377 47.384V62.2956C418.377 64.4355 420.111 66.1702 422.251 66.1702H437.163C439.303 66.1702 441.038 64.4355 441.038 62.2956V47.384C441.038 45.244 439.303 43.5093 437.163 43.5093Z" fill="white"/>
<path d="M409.424 43.5093H394.453C392.33 43.5093 390.608 45.2309 390.608 47.3546V62.3249C390.608 64.4486 392.33 66.1702 394.453 66.1702H409.424C411.547 66.1702 413.269 64.4486 413.269 62.3249V47.3546C413.269 45.2309 411.547 43.5093 409.424 43.5093Z" fill="white"/>
<path d="M454.614 86.144H108.007C103.775 86.144 100.345 89.5741 100.345 93.8053V270.074C100.345 274.305 103.775 277.735 108.007 277.735H454.614C458.845 277.735 462.275 274.305 462.275 270.074V93.8053C462.275 89.5741 458.845 86.144 454.614 86.144Z" fill="#263238" stroke="#263238" stroke-linecap="round" stroke-linejoin="round"/>
<path d="M452.618 59.697L462.334 49.981" stroke="#263238" stroke-linecap="round" stroke-linejoin="round"/>
<path d="M452.618 49.981L462.334 59.697" stroke="#263238" stroke-linecap="round" stroke-linejoin="round"/>
<path d="M436.18 52.7554H423.22V61.3119H436.18V52.7554Z" stroke="#263238" stroke-linecap="round" stroke-linejoin="round"/>
<path d="M408.411 61.312H395.452" stroke="#263238" stroke-linecap="round" stroke-linejoin="round"/>
<path d="M439.526 216.387H413.798C413.019 216.387 412.273 216.078 411.722 215.527C411.172 214.977 410.862 214.23 410.862 213.451C410.862 212.673 411.172 211.926 411.722 211.376C412.273 210.825 413.019 210.516 413.798 210.516H439.526C440.305 210.516 441.051 210.825 441.602 211.376C442.152 211.926 442.461 212.673 442.461 213.451C442.461 214.23 442.152 214.977 441.602 215.527C441.051 216.078 440.305 216.387 439.526 216.387V216.387Z" fill="#757575"/>
<path d="M439.526 236.699H367.712C366.934 236.699 366.187 236.39 365.637 235.84C365.086 235.289 364.777 234.542 364.777 233.764C364.777 232.985 365.086 232.239 365.637 231.688C366.187 231.138 366.934 230.829 367.712 230.829H439.526C440.305 230.829 441.051 231.138 441.602 231.688C442.152 232.239 442.461 232.985 442.461 233.764C442.461 234.542 442.152 235.289 441.602 235.84C441.051 236.39 440.305 236.699 439.526 236.699Z" fill="#757575"/>
<path d="M439.526 256.997H281.31C280.532 256.997 279.785 256.688 279.235 256.137C278.684 255.587 278.375 254.84 278.375 254.062C278.375 253.283 278.684 252.537 279.235 251.986C279.785 251.436 280.532 251.126 281.31 251.126H439.526C440.305 251.126 441.051 251.436 441.602 251.986C442.152 252.537 442.462 253.283 442.462 254.062C442.462 254.84 442.152 255.587 441.602 256.137C441.051 256.688 440.305 256.997 439.526 256.997Z" fill="#757575"/>
<path d="M127.497 196.089H115.506C114.728 196.089 113.981 195.78 113.431 195.229C112.88 194.679 112.571 193.932 112.571 193.154C112.571 192.375 112.88 191.628 113.431 191.078C113.981 190.528 114.728 190.218 115.506 190.218H127.497C128.276 190.218 129.022 190.528 129.573 191.078C130.123 191.628 130.433 192.375 130.433 193.154C130.433 193.932 130.123 194.679 129.573 195.229C129.022 195.78 128.276 196.089 127.497 196.089Z" fill="#BFBFBF"/>
<path d="M127.497 216.387H115.506C114.728 216.387 113.981 216.078 113.431 215.527C112.88 214.977 112.571 214.23 112.571 213.451C112.571 212.673 112.88 211.926 113.431 211.376C113.981 210.825 114.728 210.516 115.506 210.516H127.497C128.276 210.516 129.022 210.825 129.573 211.376C130.123 211.926 130.433 212.673 130.433 213.451C130.433 214.23 130.123 214.977 129.573 215.527C129.022 216.078 128.276 216.387 127.497 216.387Z" fill="#BFBFBF"/>
<path d="M127.497 236.699H115.506C114.728 236.699 113.981 236.39 113.431 235.84C112.88 235.289 112.571 234.542 112.571 233.764C112.571 232.985 112.88 232.239 113.431 231.688C113.981 231.138 114.728 230.829 115.506 230.829H127.497C128.276 230.829 129.022 231.138 129.573 231.688C130.123 232.239 130.433 232.985 130.433 233.764C130.433 234.542 130.123 235.289 129.573 235.84C129.022 236.39 128.276 236.699 127.497 236.699Z" fill="#BFBFBF"/>
<path d="M127.497 256.997H115.506C114.728 256.997 113.981 256.688 113.431 256.137C112.88 255.587 112.571 254.84 112.571 254.062C112.571 253.283 112.88 252.537 113.431 251.986C113.981 251.436 114.728 251.126 115.506 251.126H127.497C128.276 251.126 129.022 251.436 129.573 251.986C130.123 252.537 130.433 253.283 130.433 254.062C130.433 254.84 130.123 255.587 129.573 256.137C129.022 256.688 128.276 256.997 127.497 256.997Z" fill="#BFBFBF"/>
<g opacity="0.7">
<path opacity="0.7" d="M127.497 196.089H115.506C114.728 196.089 113.981 195.78 113.431 195.229C112.88 194.679 112.571 193.932 112.571 193.154C112.571 192.375 112.88 191.628 113.431 191.078C113.981 190.528 114.728 190.218 115.506 190.218H127.497C128.276 190.218 129.022 190.528 129.573 191.078C130.123 191.628 130.433 192.375 130.433 193.154C130.433 193.932 130.123 194.679 129.573 195.229C129.022 195.78 128.276 196.089 127.497 196.089Z" fill="#BFBFBF"/>
</g>
<g opacity="0.7">
<path opacity="0.7" d="M127.497 216.387H115.506C114.728 216.387 113.981 216.078 113.431 215.527C112.88 214.977 112.571 214.23 112.571 213.451C112.571 212.673 112.88 211.926 113.431 211.376C113.981 210.825 114.728 210.516 115.506 210.516H127.497C128.276 210.516 129.022 210.825 129.573 211.376C130.123 211.926 130.433 212.673 130.433 213.451C130.433 214.23 130.123 214.977 129.573 215.527C129.022 216.078 128.276 216.387 127.497 216.387Z" fill="#BFBFBF"/>
</g>
<g opacity="0.7">
<path opacity="0.7" d="M127.497 236.699H115.506C114.728 236.699 113.981 236.39 113.431 235.84C112.88 235.289 112.571 234.542 112.571 233.764C112.571 232.985 112.88 232.239 113.431 231.688C113.981 231.138 114.728 230.829 115.506 230.829H127.497C128.276 230.829 129.022 231.138 129.573 231.688C130.123 232.239 130.433 232.985 130.433 233.764C130.433 234.542 130.123 235.289 129.573 235.84C129.022 236.39 128.276 236.699 127.497 236.699Z" fill="#BFBFBF"/>
</g>
<g opacity="0.7">
<path opacity="0.7" d="M127.497 256.997H115.506C114.728 256.997 113.981 256.688 113.431 256.137C112.88 255.587 112.571 254.84 112.571 254.062C112.571 253.283 112.88 252.537 113.431 251.986C113.981 251.436 114.728 251.126 115.506 251.126H127.497C128.276 251.126 129.022 251.436 129.573 251.986C130.123 252.537 130.433 253.283 130.433 254.062C130.433 254.84 130.123 255.587 129.573 256.137C129.022 256.688 128.276 256.997 127.497 256.997Z" fill="#BFBFBF"/>
</g>
<path d="M367.713 175.776H115.506C114.728 175.776 113.981 175.467 113.431 174.917C112.88 174.366 112.571 173.62 112.571 172.841C112.571 172.063 112.88 171.316 113.431 170.766C113.981 170.215 114.728 169.906 115.506 169.906H367.713C368.491 169.906 369.238 170.215 369.788 170.766C370.339 171.316 370.648 172.063 370.648 172.841C370.648 173.62 370.339 174.366 369.788 174.917C369.238 175.467 368.491 175.776 367.713 175.776Z" fill="#BFBFBF"/>
<path d="M439.526 135.18H413.798C413.019 135.18 412.273 134.871 411.722 134.321C411.172 133.77 410.862 133.023 410.862 132.245C410.862 131.466 411.172 130.72 411.722 130.169C412.273 129.619 413.019 129.31 413.798 129.31H439.526C440.305 129.31 441.051 129.619 441.602 130.169C442.152 130.72 442.461 131.466 442.461 132.245C442.461 133.023 442.152 133.77 441.602 134.321C441.051 134.871 440.305 135.18 439.526 135.18V135.18Z" fill="#BFBFBF"/>
<path d="M403.04 135.18H378.471C377.692 135.18 376.945 134.871 376.395 134.321C375.844 133.77 375.535 133.023 375.535 132.245C375.535 131.466 375.844 130.72 376.395 130.169C376.945 129.619 377.692 129.31 378.471 129.31H403.04C403.818 129.31 404.565 129.619 405.115 130.169C405.666 130.72 405.975 131.466 405.975 132.245C405.975 133.023 405.666 133.77 405.115 134.321C404.565 134.871 403.818 135.18 403.04 135.18Z" fill="#BFBFBF"/>
<path d="M367.713 135.18H115.506C114.728 135.18 113.981 134.871 113.431 134.321C112.88 133.77 112.571 133.023 112.571 132.245C112.571 131.466 112.88 130.72 113.431 130.169C113.981 129.619 114.728 129.31 115.506 129.31H367.713C368.491 129.31 369.238 129.619 369.788 130.169C370.339 130.72 370.648 131.466 370.648 132.245C370.648 133.023 370.339 133.77 369.788 134.321C369.238 134.871 368.491 135.18 367.713 135.18Z" fill="#BFBFBF"/>
<path d="M439.526 196.089H413.798C413.019 196.089 412.273 195.78 411.722 195.229C411.172 194.679 410.862 193.932 410.862 193.154C410.862 192.375 411.172 191.628 411.722 191.078C412.273 190.528 413.019 190.218 413.798 190.218H439.526C440.305 190.218 441.051 190.528 441.602 191.078C442.152 191.628 442.461 192.375 442.461 193.154C442.461 193.932 442.152 194.679 441.602 195.229C441.051 195.78 440.305 196.089 439.526 196.089V196.089Z" fill="#999999"/>
<path d="M403.04 196.089H140.707C139.928 196.089 139.182 195.78 138.631 195.229C138.081 194.679 137.771 193.932 137.771 193.154C137.771 192.375 138.081 191.628 138.631 191.078C139.182 190.528 139.928 190.218 140.707 190.218H403.04C403.818 190.218 404.565 190.528 405.116 191.078C405.666 191.628 405.975 192.375 405.975 193.154C405.975 193.932 405.666 194.679 405.116 195.229C404.565 195.78 403.818 196.089 403.04 196.089Z" fill="#999999"/>
<path d="M216.043 216.387H140.707C139.928 216.387 139.182 216.078 138.631 215.527C138.081 214.977 137.771 214.23 137.771 213.451C137.771 212.673 138.081 211.926 138.631 211.376C139.182 210.825 139.928 210.516 140.707 210.516H216.043C216.821 210.516 217.568 210.825 218.118 211.376C218.669 211.926 218.978 212.673 218.978 213.451C218.978 214.23 218.669 214.977 218.118 215.527C217.568 216.078 216.821 216.387 216.043 216.387V216.387Z" fill="#999999"/>
<path d="M216.043 236.699H140.707C139.928 236.699 139.182 236.39 138.631 235.84C138.081 235.289 137.771 234.542 137.771 233.764C137.771 232.985 138.081 232.239 138.631 231.688C139.182 231.138 139.928 230.829 140.707 230.829H216.043C216.821 230.829 217.568 231.138 218.118 231.688C218.669 232.239 218.978 232.985 218.978 233.764C218.978 234.542 218.669 235.289 218.118 235.84C217.568 236.39 216.821 236.699 216.043 236.699V236.699Z" fill="#999999"/>
<path d="M216.043 256.997H140.707C139.928 256.997 139.182 256.688 138.631 256.137C138.081 255.587 137.771 254.84 137.771 254.062C137.771 253.283 138.081 252.537 138.631 251.986C139.182 251.436 139.928 251.126 140.707 251.126H216.043C216.821 251.126 217.568 251.436 218.118 251.986C218.669 252.537 218.978 253.283 218.978 254.062C218.978 254.84 218.669 255.587 218.118 256.137C217.568 256.688 216.821 256.997 216.043 256.997V256.997Z" fill="#999999"/>
<path d="M166.567 517.378C166.567 517.378 158.876 530.587 161.9 531.101C164.923 531.615 171.278 520.123 171.278 520.123L188.67 515.558L175.564 514.208L166.567 517.378Z" fill="white" stroke="#263238" stroke-linecap="round" stroke-linejoin="round"/>
<path opacity="0.3" d="M166.567 517.378C166.567 517.378 158.876 530.587 161.9 531.101C164.923 531.615 171.278 520.123 171.278 520.123L188.67 515.558L175.564 514.208L166.567 517.378Z" fill="black" stroke="#263238" stroke-linecap="round" stroke-linejoin="round"/>
<path d="M172.423 508.338C172.423 508.338 161.65 505.784 158.685 510.833C155.721 515.882 146.944 530.867 150.261 532.569C153.578 534.272 156.381 528.753 156.381 528.753L172.423 508.338Z" fill="white" stroke="#263238" stroke-linecap="round" stroke-linejoin="round"/>
<path d="M216.482 523.69C209.417 526.132 201.886 526.925 194.467 526.009L182.212 530.089C182.212 530.089 171.439 535.387 166.42 532.716C161.4 530.045 179.189 524.145 179.189 524.145C179.189 524.145 191.15 518.964 187.584 517.716C184.017 516.469 170.515 516.718 167.873 518.744C165.231 520.769 158.26 533.964 153.196 533.2C148.133 532.437 155.31 525.275 157.115 522.516C158.92 519.757 162.986 508.749 171.146 508.279C179.306 507.81 206.913 509.233 206.913 509.233L239.334 505.77L246.981 524.218L216.482 523.69Z" fill="white" stroke="#263238" stroke-linecap="round" stroke-linejoin="round"/>
<path d="M233.405 528.253C234.309 528.902 235.397 529.244 236.509 529.228C237.621 529.212 238.699 528.839 239.584 528.165C240.561 528.581 241.639 528.7 242.683 528.507C243.727 528.314 244.691 527.817 245.455 527.079C247.818 524.481 248.023 501.688 241.477 499.12C239.584 498.386 234.858 498.459 234.139 501.101C233.634 500.896 233.089 500.814 232.547 500.859C232.004 500.905 231.48 501.077 231.017 501.363C230.554 501.649 230.165 502.04 229.881 502.505C229.597 502.969 229.427 503.494 229.384 504.036C228.738 508.146 232.818 511.977 231.453 523.791C231.334 524.643 231.454 525.511 231.799 526.298C232.143 527.086 232.699 527.762 233.405 528.253V528.253Z" fill="#57BF9A" stroke="#263238" stroke-linecap="round" stroke-linejoin="round"/>
<path opacity="0.3" d="M233.405 528.253C234.309 528.902 235.397 529.244 236.509 529.228C237.621 529.212 238.699 528.839 239.584 528.165C240.561 528.581 241.639 528.7 242.683 528.507C243.727 528.314 244.691 527.817 245.455 527.079C247.818 524.481 248.023 501.688 241.477 499.12C239.584 498.386 234.858 498.459 234.139 501.101C233.634 500.896 233.089 500.814 232.547 500.859C232.004 500.905 231.48 501.077 231.017 501.363C230.554 501.649 230.165 502.04 229.881 502.505C229.597 502.969 229.427 503.494 229.384 504.036C228.738 508.146 232.818 511.977 231.453 523.791C231.334 524.643 231.454 525.511 231.799 526.298C232.143 527.086 232.699 527.762 233.405 528.253V528.253Z" fill="black" stroke="#263238" stroke-linecap="round" stroke-linejoin="round"/>
<path d="M240.891 522.897C240.883 516.688 239.563 510.551 237.016 504.889" stroke="#263238" stroke-linecap="round" stroke-linejoin="round"/>
<path d="M395.187 514.663C394.101 523.014 392.868 532.055 391.459 541.874H265.474L266.075 525.641C258.546 527.461 243.913 526.346 243.913 526.346V502.349C252.807 497.315 254.187 498.724 254.187 498.724C254.187 498.724 254.642 440.163 259.97 425.545C262.002 420.041 265.63 415.268 270.39 411.837V411.837C271.658 410.894 272.986 410.036 274.368 409.269L274.558 409.151C276.026 408.373 277.802 407.552 279.827 406.7L280.385 406.48C300.111 398.423 343.158 389.073 383.27 406.216C386.073 407.419 408.969 418.354 410.921 434.102C411.977 443.157 405.842 487.98 395.187 514.663Z" fill="#57BF9A"/>
<path opacity="0.2" d="M375.227 442.468L362.663 500.779C360.711 499.238 355.09 499.135 347.987 499.81C349.531 498.112 350.812 496.193 351.788 494.115C370.736 453.02 374.86 443.29 375.227 442.468Z" fill="black"/>
<path opacity="0.2" d="M398.181 506.532C395.122 518.142 392.876 529.951 391.46 541.874H265.474L266.633 523.176C274.485 522.06 288.267 520.915 302.577 518.376C303.674 522.853 303.789 527.515 302.914 532.041C302.914 532.041 360.858 539.232 380.305 534.55C385.853 533.215 390.872 525.465 395.173 514.795C396.215 512.197 397.213 509.424 398.181 506.532Z" fill="black"/>
<path opacity="0.3" d="M255.641 499.825C255.641 499.825 252.808 497.315 243.899 502.349V526.346C243.899 526.346 258.576 525.832 264.329 522.706C269.29 525.773 268.409 469.605 269.29 439.356C262.098 441.338 261.526 455.017 260.411 467.888C259.489 478.623 257.896 489.289 255.641 499.825Z" fill="black"/>
<path d="M395.187 514.663C394.101 523.014 392.868 532.055 391.459 541.874H265.474L266.075 525.641C258.546 527.461 243.913 526.346 243.913 526.346V502.349C252.807 497.315 254.187 498.724 254.187 498.724C254.187 498.724 254.642 440.163 259.97 425.545C262.002 420.041 265.63 415.268 270.39 411.837V411.837C271.658 410.894 272.986 410.036 274.368 409.269L274.558 409.151C276.026 408.373 277.802 407.552 279.827 406.7L280.385 406.48C300.111 398.423 343.158 389.073 383.27 406.216C386.073 407.419 408.969 418.354 410.921 434.102C411.977 443.157 405.842 487.98 395.187 514.663Z" stroke="#263238" stroke-linecap="round" stroke-linejoin="round"/>
<path d="M410.862 434.146C410.862 434.499 410.951 434.91 410.965 435.365C411.611 446.636 405.476 489.17 395.173 514.795C390.873 525.466 385.853 533.215 380.305 534.55C360.859 539.232 302.915 532.041 302.915 532.041C304.427 524.089 302.881 515.859 298.585 508.998C298.585 508.998 355.472 495.085 362.664 500.779L375.257 442.41" stroke="#263238" stroke-linecap="round" stroke-linejoin="round"/>
<path d="M366.626 503.964C370.682 505.914 374.157 508.889 376.709 512.594" stroke="#263238" stroke-linecap="round" stroke-linejoin="round"/>
<path d="M221.708 506.047C221.708 506.047 216.395 504.932 214.237 507.353C212.08 509.775 202.833 523.659 205.959 526.301C209.085 528.943 215.441 514.427 215.441 514.427L221.708 506.047Z" fill="white" stroke="#263238" stroke-linecap="round" stroke-linejoin="round"/>
<path d="M232.363 505.798C232.363 505.798 220.621 503.274 217.935 506.869C215.25 510.465 200.441 529.075 209.687 529.663L224.364 513.107L232.363 505.798Z" fill="white" stroke="#263238" stroke-linecap="round" stroke-linejoin="round"/>
<path d="M258.987 525.583C258.987 525.583 246.878 528.225 241.961 529.193C237.045 530.162 227.916 536.532 222.515 533.992C217.114 531.453 240.127 522.104 240.127 522.104L248.052 518.919L258.987 525.583Z" fill="#BFBFBF" stroke="#263238" stroke-linecap="round" stroke-linejoin="round"/>
<path d="M268.791 453.138C268.967 448.544 269.129 443.95 269.305 439.356" stroke="#263238" stroke-linecap="round" stroke-linejoin="round"/>
<path d="M265.474 541.874C267.719 514.091 268.556 459.39 268.556 459.39" stroke="#263238" stroke-linecap="round" stroke-linejoin="round"/>
<path d="M302.944 510.597H261.159C261.159 510.597 228.752 500.867 223.366 508.425C217.98 515.984 206.444 527.505 209.687 529.662C212.931 531.82 226.624 516.175 226.624 516.175L238.512 516.277C238.512 516.277 228.429 520.68 226.272 522.823C224.114 524.966 219.433 531.101 221.869 532.187C224.305 533.273 232.319 525.348 232.319 525.348C232.319 525.348 244.192 522.412 247.069 523.88C256.299 528.604 266.978 529.653 276.951 526.815L308.814 530.778L302.944 510.597Z" fill="white" stroke="#263238" stroke-linecap="round" stroke-linejoin="round"/>
<path d="M370.898 462.62C369.746 455.936 369.701 449.108 370.766 442.41" stroke="#263238" stroke-linecap="round" stroke-linejoin="round"/>
<path d="M380.364 427.615C380.364 427.615 400.618 400.932 410.862 434.146" stroke="#263238" stroke-linecap="round" stroke-linejoin="round"/>
<path d="M294.343 507.296C295.06 506.443 296.029 505.841 297.112 505.577C298.194 505.313 299.332 505.401 300.36 505.828C301.202 505.179 302.217 504.794 303.278 504.721C304.338 504.648 305.396 504.89 306.319 505.417C309.255 507.354 315.125 529.369 309.416 533.494C307.772 534.668 303.178 535.769 301.769 533.406C301.329 533.73 300.817 533.946 300.278 534.035C299.738 534.125 299.184 534.086 298.662 533.922C298.14 533.757 297.665 533.472 297.274 533.089C296.883 532.706 296.588 532.236 296.412 531.718C294.769 527.887 297.777 523.176 293.477 512.065C293.172 511.267 293.092 510.401 293.244 509.56C293.397 508.719 293.777 507.936 294.343 507.296V507.296Z" fill="#57BF9A"/>
<path opacity="0.3" d="M294.343 507.296C295.06 506.443 296.029 505.841 297.112 505.577C298.194 505.313 299.332 505.401 300.36 505.828C301.202 505.179 302.217 504.794 303.278 504.721C304.338 504.648 305.396 504.89 306.319 505.417C309.255 507.354 315.125 529.369 309.416 533.494C307.772 534.668 303.178 535.769 301.769 533.406C301.329 533.73 300.817 533.946 300.278 534.035C299.738 534.125 299.184 534.086 298.662 533.922C298.14 533.757 297.665 533.472 297.274 533.089C296.883 532.706 296.588 532.236 296.412 531.718C294.769 527.887 297.777 523.176 293.477 512.065C293.172 511.267 293.092 510.401 293.244 509.56C293.397 508.719 293.777 507.936 294.343 507.296V507.296Z" fill="black"/>
<path d="M294.343 507.296C295.06 506.443 296.029 505.841 297.112 505.577C298.194 505.313 299.332 505.401 300.36 505.828C301.202 505.179 302.217 504.794 303.278 504.721C304.338 504.648 305.396 504.89 306.319 505.417C309.255 507.354 315.125 529.369 309.416 533.494C307.772 534.668 303.178 535.769 301.769 533.406C301.329 533.73 300.817 533.946 300.278 534.035C299.738 534.125 299.184 534.086 298.662 533.922C298.14 533.757 297.665 533.472 297.274 533.089C296.883 532.706 296.588 532.236 296.412 531.718C294.769 527.887 297.777 523.176 293.477 512.065C293.172 511.267 293.092 510.401 293.244 509.56C293.397 508.719 293.777 507.936 294.343 507.296V507.296Z" stroke="#263238" stroke-linecap="round" stroke-linejoin="round"/>
<path d="M303.619 518.729C304.137 522.131 304.176 525.589 303.736 529.003" stroke="#263238" stroke-linecap="round" stroke-linejoin="round"/>
<path d="M322.023 452.815C321.994 453.381 321.796 453.925 321.457 454.378C321.118 454.832 320.652 455.175 320.118 455.363C319.584 455.552 319.006 455.577 318.457 455.437C317.909 455.297 317.414 454.997 317.036 454.576C316.657 454.154 316.413 453.63 316.332 453.07C316.252 452.509 316.34 451.937 316.585 451.427C316.83 450.916 317.221 450.489 317.708 450.201C318.195 449.913 318.757 449.775 319.323 449.807C320.073 449.866 320.771 450.212 321.274 450.772C321.776 451.332 322.045 452.063 322.023 452.815Z" fill="white" stroke="#263238" stroke-linecap="round" stroke-linejoin="round"/>
<path d="M319.91 497.139C319.874 497.7 319.674 498.238 319.333 498.685C318.992 499.132 318.527 499.468 317.995 499.651C317.464 499.834 316.89 499.855 316.346 499.713C315.802 499.57 315.313 499.27 314.94 498.85C314.567 498.429 314.326 497.908 314.248 497.351C314.171 496.795 314.26 496.227 314.504 495.721C314.748 495.215 315.137 494.792 315.621 494.507C316.105 494.221 316.663 494.085 317.224 494.116C317.981 494.161 318.689 494.505 319.193 495.072C319.696 495.639 319.954 496.382 319.91 497.139V497.139Z" fill="white" stroke="#263238" stroke-linecap="round" stroke-linejoin="round"/>
<path d="M346.123 398.54L344.038 368.966L313.423 376.129L311.75 399.802C309.827 400.037 307.992 400.316 306.187 400.58L313.672 418.53L328.349 420.453L351.744 398.892C349.909 398.746 347.972 398.628 346.123 398.54Z" fill="white"/>
<path d="M312.968 386.52C313.174 407.566 337.757 401.109 344.567 380.091L344.024 368.966L313.423 376.129L312.968 386.52Z" fill="#263238"/>
<path d="M346.123 398.54L344.038 368.966L313.423 376.129L311.75 399.802C309.827 400.037 307.992 400.316 306.187 400.58L313.672 418.53L328.349 420.453L351.744 398.892C349.909 398.746 347.972 398.628 346.123 398.54Z" stroke="#263238" stroke-linecap="round" stroke-linejoin="round"/>
<path d="M294.226 344.001C294.226 344.001 283.042 324.657 281.398 314.457C276.276 282.946 299.01 293.572 299.01 293.572C299.01 293.572 315.155 279.174 335.13 281.698C355.105 284.223 360.447 292.75 373.935 297.99C373.935 297.99 363.808 349.358 350.849 360.894C337.889 372.43 294.226 344.001 294.226 344.001Z" fill="#263238" stroke="#263238" stroke-linecap="round" stroke-linejoin="round"/>
<path d="M300.111 298.254C300.111 298.254 295.077 286.014 307.846 276.665" stroke="#263238" stroke-linecap="round" stroke-linejoin="round"/>
<path d="M322.097 290.9C337.053 284.295 343.731 295.303 360.418 298.238" stroke="#BFBFBF" stroke-miterlimit="10"/>
<path d="M310.546 298.254C311.906 296.543 313.549 295.078 315.404 293.924" stroke="#BFBFBF" stroke-miterlimit="10"/>
<path d="M325.898 303.053C325.898 303.053 332.371 296.845 345.213 304.917C349.089 307.469 353.452 309.188 358.026 309.966" stroke="#BFBFBF" stroke-miterlimit="10"/>
<path d="M345.683 316.497C327.073 316.981 307.846 308.571 307.846 308.571C290.498 319.036 293.081 336.046 293.081 336.046C297.044 376.701 302.401 387.532 321.393 387.532C340.385 387.532 355.825 366.985 357.072 337.705C349.91 338.042 345.683 316.497 345.683 316.497Z" fill="white" stroke="#263238" stroke-linecap="round" stroke-linejoin="round"/>
<path d="M355.472 336.047C355.898 335.416 356.464 334.893 357.126 334.519C357.788 334.145 358.528 333.929 359.288 333.889C362.664 333.889 365.159 338.292 363.97 343.796C362.781 349.3 361.225 353.688 357.85 353.688C357.078 353.66 356.334 353.398 355.715 352.937C355.096 352.475 354.633 351.836 354.386 351.105" fill="white"/>
<path d="M355.472 336.047C355.898 335.416 356.464 334.893 357.126 334.519C357.788 334.145 358.528 333.929 359.288 333.889C362.664 333.889 365.159 338.292 363.97 343.796C362.781 349.3 361.225 353.688 357.85 353.688C357.078 353.66 356.334 353.398 355.715 352.937C355.096 352.475 354.633 351.836 354.386 351.105" stroke="#263238" stroke-linecap="round" stroke-linejoin="round"/>
<path d="M318.471 356.006C318.471 356.006 320.746 359.118 316.387 361.451C312.028 363.785 308.564 363.741 307.449 361.07C306.334 358.399 311.177 336.119 311.177 336.119" stroke="#263238" stroke-linecap="round" stroke-linejoin="round"/>
<path d="M310.443 339.687C308.095 338.498 298.702 334.389 289.779 339.995L290.351 348.625C290.351 348.625 293.639 350.431 301.182 350.431C303.651 350.476 306.115 350.22 308.521 349.667" stroke="#263238" stroke-linecap="round" stroke-linejoin="round"/>
<path d="M318.237 339.995L320.967 348.992C320.967 348.992 322.083 350.46 329.641 350.46C337.2 350.46 339.68 348.655 339.68 348.655L339.46 340.025C339.46 340.025 328.496 333.567 318.237 339.995Z" stroke="#263238" stroke-linecap="round" stroke-linejoin="round"/>
<path d="M311.045 339.995H318.237" stroke="#263238" stroke-linecap="round" stroke-linejoin="round"/>
<path d="M312.572 369.613C316.501 370.732 320.681 370.604 324.534 369.246C327.499 368.126 330.081 366.181 331.975 363.639" stroke="#263238" stroke-linecap="round" stroke-linejoin="round"/>
<path d="M324.534 331.483C333.971 327.593 338.139 332.261 338.139 332.261" stroke="#263238" stroke-linecap="round" stroke-linejoin="round"/>
<path d="M299.627 331.101C301.248 330.324 303.056 330.021 304.842 330.226C306.629 330.432 308.321 331.136 309.724 332.26" stroke="#263238" stroke-linecap="round" stroke-linejoin="round"/>
<path d="M328.29 338.043C329.171 338.043 329.758 339.511 329.758 341.228C329.758 342.945 329.024 344.398 328.173 344.398C327.322 344.398 326.705 342.93 326.705 341.228C326.705 339.525 327.424 338.043 328.29 338.043Z" fill="#263238"/>
<path d="M304.852 337.646C305.718 337.646 306.319 339.114 306.319 340.831C306.319 342.548 305.586 344.001 304.734 344.001C303.883 344.001 303.267 342.533 303.267 340.831C303.267 339.128 304 337.646 304.852 337.646Z" fill="#263238"/>
<path d="M289.206 321.443C289.509 323.175 290.001 324.868 290.673 326.492" stroke="#BFBFBF" stroke-miterlimit="10"/>
<path d="M300.464 302.055C291.188 299.56 287.519 305.137 288.208 313.943" stroke="#BFBFBF" stroke-miterlimit="10"/>
<path d="M310.283 398.423L321.584 418.765L348.721 397.352L357.072 398.526L339.46 429.567C339.3 429.847 339.085 430.091 338.828 430.285C338.571 430.479 338.277 430.62 337.965 430.698C337.652 430.776 337.327 430.79 337.009 430.74C336.691 430.689 336.387 430.575 336.114 430.404L321.099 420.922L309.358 428.085C309.014 428.295 308.624 428.415 308.222 428.433C307.82 428.452 307.419 428.369 307.058 428.192C306.696 428.015 306.385 427.749 306.154 427.42C305.922 427.091 305.777 426.709 305.733 426.309L302.797 399.803L310.283 398.423Z" fill="#57BF9A"/>
<path opacity="0.3" d="M309.284 398.29L321.583 418.764L349.205 396.969L357.512 398.29L339.504 429.566C339.343 429.846 339.128 430.09 338.872 430.284C338.615 430.479 338.321 430.619 338.009 430.697C337.696 430.775 337.371 430.789 337.053 430.739C336.735 430.688 336.43 430.574 336.157 430.403L321.143 420.922L309.402 428.084C309.058 428.294 308.667 428.414 308.265 428.433C307.863 428.451 307.463 428.368 307.102 428.191C306.74 428.014 306.429 427.749 306.198 427.42C305.966 427.09 305.821 426.708 305.776 426.308L302.841 399.802L309.284 398.29Z" fill="black"/>
<path d="M310.283 398.423L321.584 418.765L348.721 397.352L357.072 398.526L339.46 429.567C339.3 429.847 339.085 430.091 338.828 430.285C338.571 430.479 338.277 430.62 337.965 430.698C337.652 430.776 337.327 430.79 337.009 430.74C336.691 430.689 336.387 430.575 336.114 430.404L321.099 420.922L309.358 428.085C309.014 428.295 308.624 428.415 308.222 428.433C307.82 428.452 307.419 428.369 307.058 428.192C306.696 428.015 306.385 427.749 306.154 427.42C305.922 427.091 305.777 426.709 305.733 426.309L302.797 399.803L310.283 398.423Z" stroke="#263238" stroke-linecap="round" stroke-linejoin="round"/>
<path d="M142.013 532.041H215.808V541.874H142.013C141.234 541.874 140.488 541.565 139.937 541.014C139.387 540.464 139.077 539.717 139.077 538.939V534.932C139.089 534.161 139.403 533.426 139.953 532.885C140.502 532.344 141.242 532.04 142.013 532.041Z" fill="#263238" stroke="#263238" stroke-linecap="round" stroke-linejoin="round"/>
<path d="M279.299 541.874H215.807V532.041L279.461 536.223C279.969 536.26 280.446 536.488 280.794 536.861C281.142 537.234 281.337 537.724 281.339 538.234V539.863C281.339 540.13 281.286 540.394 281.183 540.64C281.081 540.885 280.93 541.108 280.74 541.296C280.55 541.483 280.325 541.63 280.078 541.729C279.83 541.829 279.566 541.878 279.299 541.874V541.874Z" fill="#57BF9A" stroke="#263238" stroke-linecap="round" stroke-linejoin="round"/>
<path d="M339.503 341.447L355.472 336.046L353.578 338.439" stroke="#263238" stroke-linecap="round" stroke-linejoin="round"/>
<path d="M441.786 359.824C441.786 359.824 423.396 303.671 469.672 299.737C515.948 295.804 521.364 338.895 525.605 360.499C528.922 377.392 560.507 408.287 536.055 431.344C510.547 455.429 448.405 447.386 444.824 413.16C441.243 378.933 444.487 371.918 441.786 359.824Z" fill="#263238" stroke="#263238" stroke-linecap="round" stroke-linejoin="round"/>
<path d="M495.738 368.792C495.738 368.792 493.727 393.743 506.569 415.097C506.569 415.097 489.265 420.748 471.213 415.376C471.961 408.767 471.594 402.079 470.127 395.592L469.51 392.877L482.631 381.531L495.738 368.792Z" fill="white"/>
<path d="M463.978 387.534C466.37 400.934 468.557 403.855 479.917 401.462C488.326 399.686 495.503 387.064 495.914 377.891C495.501 373.726 495.301 369.543 495.313 365.357L482.632 381.502L463.978 387.534Z" fill="#263238"/>
<path d="M495.738 368.792C495.738 368.792 493.727 393.743 506.569 415.097C506.569 415.097 489.265 420.748 471.213 415.376C471.961 408.767 471.594 402.079 470.127 395.592L469.51 392.877L482.631 381.531L495.738 368.792Z" stroke="#263238" stroke-linecap="round" stroke-linejoin="round"/>
<path d="M366.978 511.258C366.978 511.258 341.367 499.517 339.929 509.233C338.491 518.949 344.758 533.949 368.211 526.566L417.423 533.053C417.423 533.053 425.847 516.278 416.85 507.134C416.835 507.134 373.48 513.871 366.978 511.258Z" fill="white" stroke="#263238" stroke-linecap="round" stroke-linejoin="round"/>
<path d="M327.513 521.768C327.513 521.768 323.462 523.074 322.861 525.76C322.259 528.446 320.953 532.247 322.508 532.262C324.064 532.277 325.957 526.92 325.957 526.92L329.906 525.892L327.513 521.768Z" fill="white" stroke="#263238" stroke-linecap="round" stroke-linejoin="round"/>
<path d="M354.34 496.275L327.715 499.064L331.687 536.987L358.312 534.198L354.34 496.275Z" fill="white" stroke="#263238" stroke-linecap="round" stroke-linejoin="round"/>
<path d="M327.704 499.062L323.734 499.478L327.707 537.401L331.677 536.985L327.704 499.062Z" fill="#57BF9A" stroke="#263238" stroke-linecap="round" stroke-linejoin="round"/>
<path d="M347.179 490.785C345.657 490.963 344.265 491.728 343.299 492.919C342.334 494.109 341.872 495.629 342.013 497.155C342.035 497.289 342.065 497.421 342.101 497.551L343.437 497.419L344.904 497.273C344.872 497.137 344.847 497 344.831 496.862C344.774 496.336 344.857 495.804 345.071 495.321C345.284 494.837 345.622 494.419 346.049 494.107C346.476 493.795 346.978 493.602 347.504 493.546C348.03 493.49 348.561 493.573 349.044 493.788C349.527 494.003 349.946 494.341 350.256 494.769C350.567 495.197 350.76 495.699 350.815 496.225C350.87 496.751 350.785 497.282 350.569 497.765C350.354 498.248 350.015 498.665 349.586 498.975C349.757 499.447 350.059 499.861 350.457 500.168C350.855 500.475 351.332 500.662 351.832 500.707C352.701 499.872 353.287 498.787 353.51 497.602C353.732 496.418 353.578 495.193 353.07 494.101C352.563 493.008 351.726 492.101 350.678 491.506C349.63 490.912 348.422 490.66 347.223 490.785H347.179Z" fill="white" stroke="#263238" stroke-linecap="round" stroke-linejoin="round"/>
<path d="M332.723 506.929L341.896 505.96" stroke="#263238" stroke-linecap="round" stroke-linejoin="round"/>
<path d="M333.163 511.098L350.966 509.234" stroke="#263238" stroke-linecap="round" stroke-linejoin="round"/>
<path d="M333.604 515.281L342.512 514.356" stroke="#263238" stroke-linecap="round" stroke-linejoin="round"/>
<path d="M334.044 519.464L348.912 517.908" stroke="#263238" stroke-linecap="round" stroke-linejoin="round"/>
<path d="M334.484 523.647L343.378 522.708" stroke="#263238" stroke-linecap="round" stroke-linejoin="round"/>
<path d="M334.924 527.815L354.444 525.775" stroke="#263238" stroke-linecap="round" stroke-linejoin="round"/>
<path d="M335.35 531.998L344.523 531.044" stroke="#263238" stroke-linecap="round" stroke-linejoin="round"/>
<path d="M342.248 491.299C340.729 491.48 339.34 492.247 338.378 493.436C337.416 494.626 336.956 496.145 337.097 497.668C337.114 497.806 337.139 497.944 337.17 498.079L338.52 497.932L339.988 497.786C339.943 497.653 339.914 497.515 339.9 497.375C339.871 496.607 340.135 495.857 340.639 495.277C341.142 494.697 341.848 494.33 342.612 494.252C343.377 494.173 344.142 494.389 344.753 494.854C345.364 495.32 345.775 496.001 345.903 496.758C345.96 497.284 345.874 497.814 345.654 498.295C345.435 498.775 345.09 499.188 344.655 499.488C344.826 499.96 345.128 500.374 345.526 500.681C345.924 500.988 346.401 501.175 346.901 501.22C347.77 500.385 348.356 499.3 348.579 498.115C348.801 496.931 348.647 495.707 348.139 494.614C347.632 493.521 346.795 492.614 345.747 492.019C344.699 491.425 343.491 491.173 342.292 491.299H342.248Z" fill="white" stroke="#263238" stroke-linecap="round" stroke-linejoin="round"/>
<path d="M337.317 491.812C335.797 491.993 334.409 492.76 333.446 493.95C332.484 495.14 332.025 496.658 332.165 498.182C332.165 498.329 332.165 498.446 332.165 498.593L333.516 498.446L334.983 498.299C334.947 498.169 334.917 498.037 334.895 497.903C334.835 497.374 334.916 496.839 335.129 496.351C335.343 495.863 335.681 495.44 336.11 495.125C336.539 494.81 337.044 494.614 337.573 494.557C338.102 494.499 338.637 494.582 339.124 494.798C339.611 495.014 340.032 495.354 340.345 495.785C340.658 496.215 340.852 496.721 340.907 497.251C340.962 497.78 340.876 498.315 340.658 498.8C340.44 499.286 340.097 499.706 339.665 500.017C339.831 500.488 340.13 500.901 340.526 501.206C340.922 501.511 341.398 501.694 341.896 501.734C342.538 501.132 343.031 500.389 343.337 499.564C343.642 498.738 343.752 497.853 343.657 496.978C343.48 495.462 342.718 494.074 341.535 493.11C340.351 492.145 338.838 491.68 337.317 491.812V491.812Z" fill="white" stroke="#263238" stroke-linecap="round" stroke-linejoin="round"/>
<path d="M332.4 492.327C330.878 492.504 329.485 493.27 328.52 494.46C327.555 495.65 327.093 497.171 327.234 498.697C327.255 498.835 327.284 498.972 327.322 499.107L328.657 498.961L330.125 498.814C330.094 498.683 330.069 498.551 330.052 498.418C329.995 497.892 330.077 497.361 330.291 496.877C330.505 496.393 330.843 495.975 331.27 495.663C331.697 495.351 332.199 495.158 332.725 495.102C333.25 495.046 333.782 495.13 334.265 495.344C334.748 495.559 335.166 495.897 335.477 496.325C335.788 496.753 335.98 497.255 336.035 497.781C336.09 498.307 336.006 498.838 335.79 499.321C335.574 499.804 335.235 500.221 334.807 500.531C334.979 501.002 335.281 501.413 335.679 501.717C336.077 502.022 336.553 502.206 337.053 502.248C337.689 501.642 338.179 500.899 338.484 500.075C338.789 499.25 338.902 498.367 338.814 497.493C338.636 495.963 337.865 494.563 336.665 493.597C335.465 492.63 333.933 492.174 332.4 492.327Z" fill="white" stroke="#263238" stroke-linecap="round" stroke-linejoin="round"/>
<path d="M325.076 498.931C325.014 498.401 325.094 497.865 325.307 497.375C325.519 496.886 325.858 496.462 326.287 496.146C326.717 495.83 327.223 495.633 327.753 495.575C328.283 495.518 328.82 495.601 329.307 495.818C329.795 496.035 330.216 496.377 330.529 496.809C330.842 497.241 331.034 497.748 331.088 498.279C331.141 498.81 331.053 499.345 330.832 499.831C330.611 500.317 330.266 500.736 329.831 501.045C330.003 501.515 330.306 501.927 330.704 502.231C331.101 502.535 331.578 502.72 332.077 502.762C332.911 501.964 333.486 500.934 333.73 499.806C333.974 498.677 333.874 497.502 333.444 496.43C333.014 495.359 332.273 494.441 331.316 493.795C330.36 493.148 329.232 492.803 328.078 492.803C326.923 492.803 325.795 493.148 324.839 493.795C323.883 494.441 323.142 495.359 322.711 496.43C322.281 497.502 322.182 498.677 322.425 499.806C322.669 500.934 323.244 501.964 324.078 502.762L323.741 499.46L325.208 499.313C325.151 499.191 325.107 499.063 325.076 498.931Z" fill="white" stroke="#263238" stroke-linecap="round" stroke-linejoin="round"/>
<path d="M320.659 509.688C320.908 510.242 321.198 510.777 321.525 511.288C321.242 512.299 321.19 513.361 321.372 514.395C321.555 515.429 321.969 516.409 322.581 517.262C322.581 517.262 322.699 521.445 324.181 522.105C325.664 522.765 328.026 523.573 327.982 522.399C327.938 521.224 327.249 517.717 324.577 516.939C324.577 516.939 327.645 517.541 327.307 515.838C326.97 514.136 326.383 511.67 324.504 510.965L323.491 510.525C323.491 510.525 325.928 510.965 325.722 509.131C325.517 507.296 325.311 505.139 323.917 504.625C323.594 504.508 323.227 504.405 322.846 504.302C320.791 503.818 319.47 507.047 320.659 509.688Z" fill="white" stroke="#263238" stroke-linecap="round" stroke-linejoin="round"/>
<path d="M364.102 510.936C364.102 510.936 361.24 504.596 356.558 501.294C351.877 497.991 350.115 491.563 348.207 493.119C346.299 494.674 348.031 501.499 350.996 503.833C353.961 506.166 350.644 511.377 357.938 517.805" fill="white"/>
<path d="M364.102 510.936C364.102 510.936 361.24 504.596 356.558 501.294C351.877 497.991 350.115 491.563 348.207 493.119C346.299 494.674 348.031 501.499 350.996 503.833C353.961 506.166 350.644 511.377 357.938 517.805" stroke="#263238" stroke-linecap="round" stroke-linejoin="round"/>
<path d="M536.51 529.444C535.864 533.436 535.175 537.58 534.441 541.875H433.787C433.626 540.525 434.58 537.81 435.49 533.069C424.277 536.871 404.668 530.97 404.668 530.97C407.105 524.557 405.417 508.265 405.417 508.265L416.836 505.844C416.836 505.844 421.576 456.207 425.187 441.985C429.017 426.897 449.976 410.43 520.468 415.288C520.468 415.288 552.992 414.672 558.041 436.232C562.796 456.354 537.86 528.519 536.51 529.444Z" fill="#57BF9A"/>
<path opacity="0.2" d="M435.491 533.085C427.697 535.727 415.882 533.687 409.395 532.19C411.083 530.898 412.14 528.256 412.536 524.851C417.82 524.029 423.103 515.634 426.582 477.474C427.404 468.522 429.165 462.9 431.425 459.114C429.146 467.702 429.055 476.724 431.161 485.356C432.423 490.478 436.386 502.807 436.738 507.914C437.443 516.323 437.023 524.787 435.491 533.085V533.085Z" fill="black"/>
<path opacity="0.2" d="M536.496 529.459C535.87 533.451 535.185 537.59 534.442 541.876H433.788C435.593 536.357 440.026 510.086 433.788 494.118C433.539 493.472 455.407 484.284 470.055 488.041C532.137 503.966 510.753 452.656 528.483 443.321L513.19 503.305L504.839 505.962C522.92 507.077 517.696 534.185 517.696 534.185C524.336 535.067 531.062 533.377 536.496 529.459V529.459Z" fill="black"/>
<path d="M536.51 529.444C535.864 533.436 535.175 537.58 534.441 541.875H433.787C433.626 540.525 434.58 537.81 435.49 533.069C424.277 536.871 404.668 530.97 404.668 530.97C407.105 524.557 405.417 508.265 405.417 508.265L416.836 505.844C416.836 505.844 421.576 456.207 425.187 441.985C429.017 426.897 449.976 410.43 520.468 415.288C520.468 415.288 552.992 414.672 558.041 436.232C562.796 456.354 537.86 528.519 536.51 529.444Z" stroke="#263238" stroke-linecap="round" stroke-linejoin="round"/>
<path d="M407.295 505.477C407.295 505.477 411.111 507.517 412.359 516.484C413.606 525.452 411.684 533.172 406.708 533.054C401.733 532.937 400.838 530.985 401.865 529.136C402.892 527.286 405.065 524.806 403.406 517.13C401.322 507.517 397.036 508.397 397.036 508.397C397.036 508.397 402.746 502.923 407.295 505.477Z" fill="#57BF9A" stroke="#263238" stroke-linecap="round" stroke-linejoin="round"/>
<path opacity="0.2" d="M412.535 524.909C412.139 528.255 411.067 530.897 409.394 532.247C408.63 532.845 407.678 533.152 406.708 533.113C401.718 532.996 400.838 531.044 401.865 529.194C402.892 527.345 405.065 524.865 403.406 517.189C401.322 507.575 397.036 508.456 397.036 508.456C397.036 508.456 402.76 502.982 407.31 505.521C407.31 505.521 411.126 507.561 412.374 516.528C412.771 519.305 412.825 522.119 412.535 524.909Z" fill="black"/>
<path d="M503.179 397.353C503.179 397.353 477.876 405.029 466.37 400.934L463.978 416.301C463.978 416.301 475.176 426.046 511.046 414.055L503.179 397.353Z" fill="#57BF9A" stroke="#263238" stroke-linecap="round" stroke-linejoin="round"/>
<path d="M413.269 501C416.278 510.79 418.964 518.613 416.307 519.479C413.651 520.345 411.464 512.272 408.455 502.468C405.446 492.664 402.761 484.856 405.417 484.005C408.074 483.154 410.26 491.196 413.269 501Z" fill="#57BF9A" stroke="#263238" stroke-linecap="round" stroke-linejoin="round"/>
<path d="M408.074 501.235L412.888 499.767C412.183 497.463 411.523 495.262 410.892 493.295L406.092 494.763C406.679 496.744 407.354 498.916 408.074 501.235Z" fill="#263238"/>
<path d="M407.633 488.642C407.633 488.642 409.879 484.137 411.948 487.322C414.018 490.506 414.443 500.178 415.911 500.193" stroke="#263238" stroke-linecap="round" stroke-linejoin="round"/>
<path d="M437.486 440.708C435.652 446.329 433.083 452.449 431.425 459.186C429.146 467.774 429.055 476.796 431.16 485.428C432.423 490.55 436.385 502.879 436.738 507.986C437.437 516.375 437.018 524.82 435.49 533.098C434.58 537.824 433.626 540.54 433.788 541.905" stroke="#263238" stroke-linecap="round" stroke-linejoin="round"/>
<path d="M499.789 507.634C499.789 507.634 458.841 513.226 445.03 513.505C442.916 513.505 436.576 512.771 436.576 512.771L426.757 506.211C426.757 506.211 419.199 505.095 415.485 505.932L411.258 511.465C411.258 511.465 405.989 513.167 408.998 517.159C408.685 518.096 408.65 519.103 408.898 520.059C409.145 521.015 409.664 521.879 410.393 522.546C410.393 522.546 410.627 526.024 412.946 527.419C412.946 527.419 413.401 530.662 415.955 531.587C418.509 532.511 434.492 529.958 439.365 528.578C444.237 527.198 491.496 534.596 510.033 534.141C510.033 534.17 525.914 515.56 499.789 507.634Z" fill="white" stroke="#263238" stroke-linecap="round" stroke-linejoin="round"/>
<path d="M500.42 352.647C500.42 352.647 489.618 356.86 483.219 345.206C480.445 340.158 474.839 329.634 474.839 329.634C473.239 333.758 475.206 340.04 475.206 340.04C471.536 338.44 464.462 338.059 464.462 338.059C461.952 333.861 461.219 324.321 461.219 324.321C457.74 330.192 458.738 338.47 458.738 338.47C453.061 339.016 447.687 341.291 443.342 344.986C444.267 348.729 444.59 354.57 444.282 366.708C443.885 382.544 451.503 386.888 458.958 392.818C466.414 398.747 486.712 401.8 493.728 370.803C493.728 370.803 508.405 365.328 501.242 353.836L500.42 352.647Z" fill="white" stroke="#263238" stroke-linecap="round" stroke-linejoin="round"/>
<path d="M488.385 333.567C490.571 338.286 493.758 342.472 497.724 345.836C501.691 349.199 506.342 351.658 511.354 353.043" stroke="#BFBFBF" stroke-miterlimit="10"/>
<path d="M484.525 321.827C484.869 323.755 485.359 325.654 485.993 327.507" stroke="#BFBFBF" stroke-miterlimit="10"/>
<path d="M491.864 322.545C491.864 322.545 500.2 338.455 513.233 338.836" stroke="#BFBFBF" stroke-miterlimit="10"/>
<path d="M517.416 363.009C517.416 363.009 538.623 397.353 538.623 417.313" stroke="#BFBFBF" stroke-miterlimit="10"/>
<path d="M511.809 372.167C511.809 372.167 517.049 391.321 525.488 400.934" stroke="#BFBFBF" stroke-miterlimit="10"/>
<path d="M445.163 322.369C444.528 325.194 444.111 328.065 443.915 330.955" stroke="#BFBFBF" stroke-miterlimit="10"/>
<path d="M462.525 304.375C462.525 304.375 452.647 306.224 446.204 317.862" stroke="#BFBFBF" stroke-miterlimit="10"/>
<path d="M450.02 393.302C450.02 393.302 449.698 408.712 457.564 417.372" stroke="#BFBFBF" stroke-miterlimit="10"/>
<path d="M463.978 346.145C474.677 344.046 479.359 349.491 479.359 349.491" stroke="#263238" stroke-linecap="round" stroke-linejoin="round"/>
<path d="M446.16 350.651C447.341 349.459 448.754 348.524 450.312 347.903C451.87 347.281 453.539 346.988 455.216 347.04" stroke="#263238" stroke-linecap="round" stroke-linejoin="round"/>
<path d="M470.949 382C474.251 380.122 476.086 375.22 476.086 375.22L475.396 375.601C471.091 377.903 466.399 379.395 461.556 380.004C462.687 381.319 464.219 382.226 465.915 382.587C467.612 382.948 469.38 382.741 470.949 382V382Z" stroke="#263238" stroke-linecap="round" stroke-linejoin="round"/>
<path d="M457.858 371.816C456.463 371.64 452.486 369.761 452.148 367.061C452.046 366.253 452.633 365.52 453.499 364.874C455.212 363.67 456.59 362.049 457.502 360.164C458.414 358.279 458.829 356.192 458.709 354.101C458.709 353.807 458.709 353.631 458.709 353.631" stroke="#263238" stroke-linecap="round" stroke-linejoin="round"/>
<path d="M471.536 350.446C472.549 350.314 473.591 352.001 473.855 354.188C474.119 356.375 473.532 358.239 472.505 358.371C471.477 358.503 470.465 356.815 470.186 354.629C469.907 352.442 470.523 350.563 471.536 350.446Z" fill="#263238"/>
<path d="M453.894 356.772C454.159 358.915 453.572 360.75 452.574 360.867C451.576 360.985 450.563 359.399 450.299 357.213C450.034 355.026 450.621 353.221 451.619 353.103C452.618 352.986 453.63 354.615 453.894 356.772Z" fill="#263238"/>
<path d="M486.741 352.28C486.741 352.28 485.376 348.406 486.932 346.41" stroke="#263238" stroke-linecap="round" stroke-linejoin="round"/>
<path d="M536.495 529.459C531.059 533.383 524.325 535.074 517.68 534.185C517.68 534.185 522.905 507.077 504.823 505.961L513.174 503.305L528.467 443.321" stroke="#263238" stroke-linecap="round" stroke-linejoin="round"/>
<path d="M517.68 503.304C517.68 503.304 527.366 505.858 530.082 514.194" stroke="#263238" stroke-linecap="round" stroke-linejoin="round"/>
<path d="M478.155 406.776C487.372 406.712 496.473 404.712 504.867 400.905" stroke="#263238" stroke-linecap="round" stroke-linejoin="round"/>
<path d="M465.68 405.336C467.751 405.876 469.861 406.249 471.991 406.452" stroke="#263238" stroke-linecap="round" stroke-linejoin="round"/>
<path d="M506.951 422.538C509.564 421.618 512.303 420.537 515.17 419.294" stroke="#263238" stroke-linecap="round" stroke-linejoin="round"/>
<path d="M461.614 422.759C461.614 422.759 471.462 432.108 497.514 425.43" stroke="#263238" stroke-linecap="round" stroke-linejoin="round"/>
<path d="M470.127 469.225C470.127 469.225 471.595 491.783 488.385 500.193" stroke="#263238" stroke-linecap="round" stroke-linejoin="round"/>
<path d="M499.378 507.987C499.378 507.987 502.666 500.737 512.499 504.318C512.499 504.318 521.79 507.517 524.578 517.072C527.367 526.627 523.874 535.154 517.093 535.506C510.313 535.858 509.08 535.33 510.225 533.246C511.428 530.97 512.1 528.452 512.192 525.88C512.283 523.308 511.791 520.748 510.753 518.393C506.541 508.31 499.378 507.987 499.378 507.987Z" fill="#57BF9A"/>
<g opacity="0.2">
<path opacity="0.2" d="M499.378 507.987C499.378 507.987 502.666 500.737 512.499 504.318C512.499 504.318 521.79 507.517 524.578 517.072C527.367 526.627 523.874 535.154 517.093 535.506C510.313 535.858 509.08 535.33 510.225 533.246C511.428 530.97 512.1 528.452 512.192 525.88C512.283 523.308 511.791 520.748 510.753 518.393C506.541 508.31 499.378 507.987 499.378 507.987Z" fill="black"/>
</g>
<path d="M499.378 507.987C499.378 507.987 502.666 500.737 512.499 504.318C512.499 504.318 521.79 507.517 524.578 517.072C527.367 526.627 523.874 535.154 517.093 535.506C510.313 535.858 509.08 535.33 510.225 533.246C511.428 530.97 512.1 528.452 512.192 525.88C512.283 523.308 511.791 520.748 510.753 518.393C506.541 508.31 499.378 507.987 499.378 507.987Z" stroke="#263238" stroke-linecap="round" stroke-linejoin="round"/>
<path d="M49.681 478.149C49.681 478.149 44.6321 434.984 0 452.45C0 452.45 37.9835 452.171 44.412 484.739L50.2827 484.108L49.681 478.149Z" fill="#57BF9A"/>
<path opacity="0.1" d="M49.681 478.149C49.681 478.149 44.6321 434.984 0 452.45C0 452.45 37.9835 452.171 44.412 484.739L50.2827 484.108L49.681 478.149Z" fill="black"/>
<path d="M50.2974 477.399C50.2974 477.399 46.4374 431.372 38.0276 395.605C38.0276 395.605 63.712 422.772 57.8413 473.92L50.2974 477.399Z" fill="#57BF9A"/>
<path opacity="0.1" d="M50.2974 477.399C50.2974 477.399 46.4374 431.372 38.0276 395.605C38.0276 395.605 63.712 422.772 57.8413 473.92L50.2974 477.399Z" fill="black"/>
<path d="M47.8024 507.898C47.8024 507.898 40.464 444.494 15.7629 422.772C15.7629 422.772 59.7933 433.736 53.3062 501.073L47.8024 507.898Z" fill="#57BF9A"/>
<path d="M55.5518 505.285C55.5518 505.285 66.3392 442.365 92.1117 421.95C92.1117 421.95 47.5236 430.521 50.4296 498.122L55.5518 505.285Z" fill="#57BF9A"/>
<path d="M78.1685 484.649H26.0659V493.705H27.7978V525.656C27.7977 529.945 29.4963 534.059 32.5219 537.098C35.5475 540.138 39.6537 541.855 43.9423 541.874H60.0867C64.3893 541.874 68.5159 540.166 71.5597 537.125C74.6035 534.084 76.3154 529.959 76.3193 525.656V493.705H78.0511L78.1685 484.649Z" fill="white" stroke="#263238" stroke-miterlimit="10"/>
<path d="M62.0244 493.28H68.9519Z" fill="white"/>
<path d="M62.0244 493.28H68.9519" stroke="#263238" stroke-miterlimit="10"/>
<path d="M34.8574 493.28H54.9059Z" fill="white"/>
<path d="M34.8574 493.28H54.9059" stroke="#263238" stroke-miterlimit="10"/>
<path d="M254.51 502.012L241.154 393.257C240.901 391.556 240.058 389.998 238.773 388.856C237.488 387.713 235.843 387.058 234.124 387.004H218.831L236.531 508.22H249.05C249.837 508.235 250.618 508.078 251.338 507.761C252.058 507.443 252.7 506.973 253.22 506.382C253.739 505.791 254.124 505.094 254.347 504.339C254.57 503.584 254.625 502.79 254.51 502.012V502.012Z" fill="#57BF9A" stroke="#263238" stroke-linecap="round" stroke-linejoin="round"/>
<path d="M245.704 508.22H91.8327C90.1166 508.164 88.4747 507.507 87.1928 506.364C85.911 505.222 85.0703 503.666 84.8171 501.968L71.4613 393.213C71.3433 392.434 71.3972 391.639 71.6191 390.883C71.8409 390.127 72.2255 389.429 72.7457 388.838C73.2659 388.246 73.9091 387.776 74.6304 387.459C75.3517 387.142 76.1335 386.987 76.921 387.005H230.851C232.567 387.062 234.209 387.718 235.491 388.861C236.773 390.003 237.614 391.559 237.867 393.257L251.223 502.012C251.339 502.796 251.282 503.595 251.056 504.354C250.829 505.113 250.44 505.813 249.913 506.405C249.387 506.997 248.738 507.466 248.01 507.78C247.283 508.094 246.496 508.244 245.704 508.22V508.22Z" fill="#263238"/>
<path opacity="0.1" d="M245.704 508.22H91.8327C90.1166 508.164 88.4747 507.507 87.1928 506.364C85.911 505.222 85.0703 503.666 84.8171 501.968L71.4613 393.213C71.3433 392.434 71.3972 391.639 71.6191 390.883C71.8409 390.127 72.2255 389.429 72.7457 388.838C73.2659 388.246 73.9091 387.776 74.6304 387.459C75.3517 387.142 76.1335 386.987 76.921 387.005H230.851C232.567 387.062 234.209 387.718 235.491 388.861C236.773 390.003 237.614 391.559 237.867 393.257L251.223 502.012C251.339 502.796 251.282 503.595 251.056 504.354C250.829 505.113 250.44 505.813 249.913 506.405C249.387 506.997 248.738 507.466 248.01 507.78C247.283 508.094 246.496 508.244 245.704 508.22V508.22Z" fill="white"/>
<path d="M245.704 508.22H91.8327C90.1166 508.164 88.4747 507.507 87.1928 506.364C85.911 505.222 85.0703 503.666 84.8171 501.968L71.4613 393.213C71.3433 392.434 71.3972 391.639 71.6191 390.883C71.8409 390.127 72.2255 389.429 72.7457 388.838C73.2659 388.246 73.9091 387.776 74.6304 387.459C75.3517 387.142 76.1335 386.987 76.921 387.005H230.851C232.567 387.062 234.209 387.718 235.491 388.861C236.773 390.003 237.614 391.559 237.867 393.257L251.223 502.012C251.339 502.796 251.282 503.595 251.056 504.354C250.829 505.113 250.44 505.813 249.913 506.405C249.387 506.997 248.738 507.466 248.01 507.78C247.283 508.094 246.496 508.244 245.704 508.22V508.22Z" stroke="#263238" stroke-linecap="round" stroke-linejoin="round"/>
<path d="M173.979 532.98L180.129 462.928C180.155 462.527 180.098 462.124 179.963 461.746C179.827 461.368 179.615 461.021 179.34 460.728C179.064 460.435 178.732 460.201 178.363 460.042C177.994 459.883 177.596 459.801 177.194 459.802H138.403C137.675 459.798 136.971 460.064 136.429 460.55C135.886 461.035 135.544 461.705 135.467 462.429L128.775 538.748C128.749 539.149 128.805 539.552 128.941 539.93C129.077 540.309 129.289 540.655 129.564 540.948C129.839 541.241 130.172 541.475 130.541 541.634C130.91 541.794 131.308 541.875 131.71 541.874H208.675C209.454 541.874 210.2 541.565 210.751 541.015C211.301 540.464 211.611 539.718 211.611 538.939C211.611 538.161 211.301 537.414 210.751 536.863C210.2 536.313 209.454 536.004 208.675 536.004H176.841C176.454 535.994 176.073 535.908 175.72 535.751C175.366 535.594 175.048 535.368 174.782 535.087C174.516 534.806 174.308 534.475 174.17 534.114C174.032 533.752 173.968 533.367 173.979 532.98V532.98Z" fill="#263238" stroke="#263238" stroke-linecap="round" stroke-linejoin="round"/>
<path d="M211.551 539.042C211.551 538.263 211.242 537.517 210.691 536.966C210.141 536.416 209.394 536.106 208.616 536.106H176.84C176.437 536.107 176.038 536.025 175.668 535.865C175.297 535.705 174.964 535.47 174.689 535.175C174.413 534.881 174.201 534.532 174.067 534.152C173.932 533.772 173.877 533.368 173.905 532.965L180.055 462.913C180.181 462.495 180.213 462.054 180.147 461.623C180.082 461.191 179.921 460.779 179.676 460.418C179.431 460.056 179.109 459.754 178.732 459.533C178.356 459.311 177.935 459.177 177.5 459.139C177.065 459.101 176.627 459.161 176.218 459.313C175.809 459.466 175.439 459.708 175.136 460.022C174.832 460.336 174.602 460.713 174.463 461.127C174.324 461.541 174.279 461.981 174.331 462.414L167.638 538.733C167.612 539.129 167.667 539.525 167.798 539.898C167.929 540.272 168.135 540.615 168.402 540.907C168.669 541.199 168.993 541.434 169.354 541.598C169.714 541.762 170.104 541.851 170.5 541.86H208.66C209.411 541.849 210.129 541.551 210.667 541.027C211.205 540.503 211.521 539.792 211.551 539.042Z" fill="#57BF9A" stroke="#263238" stroke-linecap="round" stroke-linejoin="round"/>
<path d="M35.092 541.875H585.472" stroke="#263238" stroke-linecap="round" stroke-linejoin="round"/>
<path d="M548.648 275.345H519.72C517.918 275.345 516.189 276.061 514.915 277.336C513.641 278.61 512.925 280.338 512.925 282.141V296.23C512.925 298.033 513.641 299.761 514.915 301.035C516.189 302.31 517.918 303.026 519.72 303.026H527.279L529.495 316.015L541.09 303.026H548.648C549.542 303.028 550.427 302.853 551.253 302.513C552.079 302.172 552.83 301.672 553.463 301.041C554.095 300.409 554.597 299.66 554.939 298.834C555.282 298.009 555.458 297.124 555.458 296.23V282.199C555.464 281.301 555.292 280.411 554.952 279.58C554.613 278.748 554.112 277.992 553.479 277.355C552.846 276.718 552.094 276.213 551.264 275.868C550.435 275.523 549.546 275.345 548.648 275.345V275.345Z" fill="white" stroke="#263238" stroke-linecap="round" stroke-linejoin="round"/>
<path d="M504.295 233.766H475.367C474.474 233.764 473.588 233.938 472.762 234.279C471.936 234.619 471.185 235.12 470.553 235.751C469.92 236.382 469.418 237.132 469.076 237.957C468.733 238.783 468.557 239.667 468.557 240.561V254.636C468.557 256.442 469.275 258.174 470.552 259.451C471.829 260.729 473.561 261.446 475.367 261.446H482.926L488.664 274.435L496.737 261.446H504.295C506.101 261.446 507.833 260.729 509.111 259.451C510.388 258.174 511.105 256.442 511.105 254.636V240.561C511.105 239.667 510.929 238.783 510.586 237.957C510.244 237.132 509.742 236.382 509.11 235.751C508.477 235.12 507.726 234.619 506.9 234.279C506.074 233.938 505.189 233.764 504.295 233.766V233.766Z" fill="white" stroke="#263238" stroke-linecap="round" stroke-linejoin="round"/>
<path d="M447.995 248.31H420.667C418.962 248.31 417.327 248.987 416.121 250.193C414.916 251.398 414.238 253.034 414.238 254.738V268.036C414.238 269.741 414.916 271.376 416.121 272.581C417.327 273.787 418.962 274.464 420.667 274.464H427.814L435.27 286.719L440.847 274.464H447.995C449.7 274.464 451.335 273.787 452.541 272.581C453.746 271.376 454.423 269.741 454.423 268.036V254.738C454.423 253.034 453.746 251.398 452.541 250.193C451.335 248.987 449.7 248.31 447.995 248.31Z" fill="white" stroke="#263238" stroke-linecap="round" stroke-linejoin="round"/>
<path d="M430.632 258.246V259.845C430.632 261.812 429.693 262.883 427.697 262.883H426.772V267.521H424.835V255.193H427.697C429.649 255.193 430.632 256.264 430.632 258.246ZM426.831 256.954V261.122H427.697C428.313 261.122 428.636 260.843 428.636 259.963V258.114C428.636 257.233 428.313 256.954 427.697 256.954H426.831Z" fill="#263238"/>
<path d="M433.568 267.521H431.63V255.193H433.568V260.477H435.769V255.193H437.736V267.521H435.769V262.238H433.568V267.521Z" fill="#263238"/>
<path d="M444.839 258.246V259.845C444.839 261.812 443.9 262.883 441.904 262.883H440.994V267.521H439.057V255.193H441.904C443.841 255.193 444.839 256.264 444.839 258.246ZM441.038 256.954V261.122H441.948C442.564 261.122 442.902 260.843 442.902 259.963V258.114C442.902 257.233 442.564 256.954 441.948 256.954H441.038Z" fill="#263238"/>
<path d="M485.686 249.44V251.084C485.686 253.051 484.702 254.181 482.75 254.181C480.798 254.181 479.815 253.051 479.815 251.084V244.671C479.815 242.704 480.798 241.574 482.75 241.574C484.702 241.574 485.686 242.704 485.686 244.671V245.874H483.851V244.553C483.851 243.673 483.469 243.335 482.853 243.335C482.237 243.335 481.855 243.673 481.855 244.553V251.202C481.855 252.082 482.237 252.405 482.853 252.405C483.469 252.405 483.851 252.082 483.851 251.202V249.44H485.686Z" fill="#263238"/>
<path d="M490.337 247.195H492.7V248.56H490.337V250.982H488.958V248.56H486.609V247.195H488.958V244.817H490.337V247.195Z" fill="#263238"/>
<path d="M497.31 247.195H499.614V248.56H497.251V250.982H495.886V248.56H493.523V247.195H495.886V244.817H497.251L497.31 247.195Z" fill="#263238"/>
<path d="M520.616 290.535V288.657L528.468 285.721V287.629L523.097 289.537L528.483 291.46V293.368L520.616 290.535Z" fill="#263238"/>
<path d="M536.187 281.172H538.462L531.901 298.021H529.612L536.187 281.172Z" fill="#263238"/>
<path d="M539.549 293.426V291.518L544.935 289.596L539.549 287.673V285.765L547.401 288.7V290.579L539.549 293.426Z" fill="#263238"/>
</svg>
