<svg width="30" height="30" viewBox="0 0 30 30" fill="none" xmlns="http://www.w3.org/2000/svg">
<path d="M6.25 18.75H23.75C24.4375 18.75 25 18.1875 25 17.5C25 16.8125 24.4375 16.25 23.75 16.25H6.25C5.5625 16.25 5 16.8125 5 17.5C5 18.1875 5.5625 18.75 6.25 18.75ZM6.25 23.75H23.75C24.4375 23.75 25 23.1875 25 22.5C25 21.8125 24.4375 21.25 23.75 21.25H6.25C5.5625 21.25 5 21.8125 5 22.5C5 23.1875 5.5625 23.75 6.25 23.75ZM6.25 13.75H23.75C24.4375 13.75 25 13.1875 25 12.5C25 11.8125 24.4375 11.25 23.75 11.25H6.25C5.5625 11.25 5 11.8125 5 12.5C5 13.1875 5.5625 13.75 6.25 13.75ZM5 7.5C5 8.1875 5.5625 8.75 6.25 8.75H23.75C24.4375 8.75 25 8.1875 25 7.5C25 6.8125 24.4375 6.25 23.75 6.25H6.25C5.5625 6.25 5 6.8125 5 7.5Z" fill="#323232"/>
</svg>
