<svg width="136" height="136" viewBox="0 0 136 136" fill="none" xmlns="http://www.w3.org/2000/svg">
<circle cx="4.09639" cy="4.09639" r="4.09639" fill="#252121"/>
<circle cx="25.3977" cy="4.09639" r="4.09639" fill="#252121"/>
<circle cx="46.6987" cy="4.09639" r="4.09639" fill="#252121"/>
<circle cx="67.9999" cy="4.09639" r="4.09639" fill="#252121"/>
<circle cx="89.3012" cy="4.09639" r="4.09639" fill="#252121"/>
<circle cx="110.602" cy="4.09639" r="4.09639" fill="#252121"/>
<circle cx="131.904" cy="4.09639" r="4.09639" fill="#252121"/>
<circle cx="4.09639" cy="25.3977" r="4.09639" fill="#252121"/>
<circle cx="4.09639" cy="46.6989" r="4.09639" fill="#252121"/>
<circle cx="4.09639" cy="68.0002" r="4.09639" fill="#252121"/>
<circle cx="4.09639" cy="89.301" r="4.09639" fill="#252121"/>
<circle cx="4.09639" cy="110.602" r="4.09639" fill="#252121"/>
<circle cx="4.09639" cy="131.904" r="4.09639" fill="#252121"/>
<circle cx="25.3977" cy="25.3977" r="4.09639" fill="#252121"/>
<circle cx="25.3977" cy="46.6989" r="4.09639" fill="#252121"/>
<circle cx="25.3977" cy="68.0002" r="4.09639" fill="#252121"/>
<circle cx="25.3977" cy="89.301" r="4.09639" fill="#252121"/>
<circle cx="25.3977" cy="110.602" r="4.09639" fill="#252121"/>
<circle cx="25.3977" cy="131.904" r="4.09639" fill="#252121"/>
<circle cx="46.6987" cy="25.3977" r="4.09639" fill="#252121"/>
<circle cx="46.6987" cy="46.6989" r="4.09639" fill="#252121"/>
<circle cx="46.6987" cy="68.0002" r="4.09639" fill="#252121"/>
<circle cx="46.6987" cy="89.301" r="4.09639" fill="#252121"/>
<circle cx="46.6987" cy="110.602" r="4.09639" fill="#252121"/>
<circle cx="46.6987" cy="131.904" r="4.09639" fill="#252121"/>
<circle cx="67.9999" cy="25.3977" r="4.09639" fill="#252121"/>
<circle cx="67.9999" cy="46.6989" r="4.09639" fill="#252121"/>
<circle cx="67.9999" cy="68.0002" r="4.09639" fill="#252121"/>
<circle cx="67.9999" cy="89.301" r="4.09639" fill="#252121"/>
<circle cx="67.9999" cy="110.602" r="4.09639" fill="#252121"/>
<circle cx="67.9999" cy="131.904" r="4.09639" fill="#252121"/>
<circle cx="89.3012" cy="25.3977" r="4.09639" fill="#252121"/>
<circle cx="89.3012" cy="46.6989" r="4.09639" fill="#252121"/>
<circle cx="89.3012" cy="68.0002" r="4.09639" fill="#252121"/>
<circle cx="89.3012" cy="89.301" r="4.09639" fill="#252121"/>
<circle cx="89.3012" cy="110.602" r="4.09639" fill="#252121"/>
<circle cx="89.3012" cy="131.904" r="4.09639" fill="#252121"/>
<circle cx="110.602" cy="25.3977" r="4.09639" fill="#252121"/>
<circle cx="131.904" cy="25.3977" r="4.09639" fill="#252121"/>
<circle cx="110.602" cy="46.6989" r="4.09639" fill="#252121"/>
<circle cx="131.904" cy="46.6989" r="4.09639" fill="#252121"/>
<circle cx="110.602" cy="68.0002" r="4.09639" fill="#252121"/>
<circle cx="131.904" cy="68.0002" r="4.09639" fill="#252121"/>
<circle cx="110.602" cy="89.301" r="4.09639" fill="#252121"/>
<circle cx="131.904" cy="89.301" r="4.09639" fill="#252121"/>
<circle cx="110.602" cy="110.602" r="4.09639" fill="#252121"/>
<circle cx="131.904" cy="110.602" r="4.09639" fill="#252121"/>
<circle cx="110.602" cy="131.904" r="4.09639" fill="#252121"/>
<circle cx="131.904" cy="131.904" r="4.09639" fill="#252121"/>
</svg>
