<svg width="45" height="45" viewBox="0 0 45 45" fill="none" xmlns="http://www.w3.org/2000/svg">
<circle cx="22.5" cy="22.5" r="22.5" fill="black"/>
<path d="M32.9466 18.1753C32.8974 17.0592 32.7169 16.292 32.4584 15.6271C32.1917 14.9214 31.7814 14.2896 31.2438 13.7644C30.7186 13.2309 30.0826 12.8165 29.3851 12.5539C28.7164 12.2954 27.9531 12.1149 26.8371 12.0657C25.7127 12.0123 25.3558 12 22.5041 12C19.6524 12 19.2954 12.0123 18.1753 12.0615C17.0592 12.1108 16.292 12.2914 15.6273 12.5498C14.9214 12.8165 14.2896 13.2268 13.7644 13.7644C13.2309 14.2896 12.8166 14.9256 12.5539 15.6231C12.2954 16.292 12.1149 17.0551 12.0657 18.1711C12.0123 19.2954 12 19.6524 12 22.5041C12 25.3558 12.0123 25.7127 12.0615 26.8329C12.1108 27.9489 12.2914 28.7162 12.5499 29.381C12.8166 30.0868 13.2309 30.7186 13.7644 31.2438C14.2896 31.7772 14.9256 32.1917 15.6231 32.4543C16.292 32.7128 17.0551 32.8933 18.1712 32.9425C19.2913 32.9918 19.6484 33.004 22.5001 33.004C25.3518 33.004 25.7087 32.9918 26.8289 32.9425C27.9449 32.8933 28.7122 32.7128 29.3769 32.4543C30.7885 31.9085 31.9045 30.7925 32.4502 29.381C32.7086 28.7122 32.8892 27.9489 32.9385 26.8329C32.9877 25.7127 33 25.3558 33 22.5041C33 19.6524 32.9958 19.2954 32.9466 18.1753ZM31.0552 26.7509C31.01 27.7766 30.8377 28.3306 30.6941 28.6999C30.3411 29.6149 29.6149 30.3411 28.6999 30.6941C28.3306 30.8377 27.7726 31.01 26.7509 31.055C25.643 31.1044 25.3107 31.1166 22.5083 31.1166C19.7058 31.1166 19.3693 31.1044 18.2655 31.055C17.2397 31.01 16.6858 30.8377 16.3165 30.6941C15.8611 30.5258 15.4467 30.2591 15.1102 29.9103C14.7615 29.5697 14.4948 29.1594 14.3265 28.704C14.1828 28.3347 14.0105 27.7766 13.9655 26.755C13.9161 25.6472 13.904 25.3148 13.904 22.5123C13.904 19.7098 13.9161 19.3733 13.9655 18.2697C14.0105 17.2439 14.1828 16.6899 14.3265 16.3207C14.4948 15.8651 14.7615 15.4508 15.1144 15.1142C15.4548 14.7655 15.8651 14.4988 16.3207 14.3306C16.6899 14.187 17.248 14.0147 18.2697 13.9695C19.3775 13.9203 19.7099 13.908 22.5123 13.908C25.3189 13.908 25.6512 13.9203 26.755 13.9695C27.7808 14.0147 28.3347 14.187 28.704 14.3306C29.1594 14.4988 29.5739 14.7655 29.9103 15.1142C30.2591 15.4548 30.5258 15.8651 30.6941 16.3207C30.8377 16.6899 31.01 17.2479 31.0552 18.2697C31.1044 19.3775 31.1167 19.7098 31.1167 22.5123C31.1167 25.3148 31.1044 25.643 31.0552 26.7509Z" fill="white"/>
<path d="M22.5041 17.1084C19.5253 17.1084 17.1084 19.5251 17.1084 22.5041C17.1084 25.483 19.5253 27.8997 22.5041 27.8997C25.483 27.8997 27.8997 25.483 27.8997 22.5041C27.8997 19.5251 25.483 17.1084 22.5041 17.1084ZM22.5041 26.0041C20.5716 26.0041 19.004 24.4367 19.004 22.5041C19.004 20.5714 20.5716 19.004 22.5041 19.004C24.4367 19.004 26.0041 20.5714 26.0041 22.5041C26.0041 24.4367 24.4367 26.0041 22.5041 26.0041Z" fill="white"/>
</svg>
