<svg width="18" height="18" viewBox="0 0 18 18" fill="none" xmlns="http://www.w3.org/2000/svg">
<path d="M14.7377 6.78L11.1077 6.465L9.69024 3.1275C9.43524 2.52 8.56524 2.52 8.31024 3.1275L6.89274 6.4725L3.27024 6.78C2.61024 6.8325 2.34024 7.6575 2.84274 8.0925L5.59524 10.4775L4.77024 14.0175C4.62024 14.6625 5.31774 15.1725 5.88774 14.8275L9.00024 12.9525L12.1127 14.835C12.6827 15.18 13.3802 14.67 13.2302 14.025L12.4052 10.4775L15.1577 8.0925C15.6602 7.6575 15.3977 6.8325 14.7377 6.78ZM9.00024 11.55L6.18024 13.2525L6.93024 10.0425L4.44024 7.8825L7.72524 7.5975L9.00024 4.575L10.2827 7.605L13.5677 7.89L11.0777 10.05L11.8277 13.26L9.00024 11.55Z" fill="#323232"/>
</svg>
