<svg width="45" height="45" viewBox="0 0 45 45" fill="none" xmlns="http://www.w3.org/2000/svg">
<circle cx="22.5" cy="22.5" r="22.5" fill="black"/>
<path d="M33.9231 17.0125C33.145 17.3538 32.3159 17.5801 31.4515 17.6899C32.3408 17.159 33.0195 16.3247 33.3385 15.3191C32.5095 15.8134 31.5941 16.1625 30.6185 16.3574C29.8313 15.5192 28.7093 15 27.4853 15C25.1105 15 23.1987 16.9275 23.1987 19.2905C23.1987 19.6305 23.2275 19.9575 23.2981 20.2687C19.732 20.0948 16.5765 18.3856 14.4568 15.782C14.0867 16.4241 13.8696 17.159 13.8696 17.9502C13.8696 19.4357 14.6346 20.7525 15.7749 21.5149C15.0858 21.5018 14.4097 21.3018 13.8369 20.9866C13.8369 20.9997 13.8369 21.0167 13.8369 21.0337C13.8369 23.1182 15.3238 24.8495 17.2735 25.2484C16.9244 25.3438 16.5438 25.3896 16.1489 25.3896C15.8743 25.3896 15.5971 25.3739 15.3368 25.3164C15.8926 27.0151 17.4697 28.2639 19.3449 28.3045C17.8855 29.4461 16.0325 30.1339 14.0265 30.1339C13.6748 30.1339 13.3374 30.1182 13 30.0751C14.9001 31.3004 17.1519 32 19.5803 32C27.4735 32 31.7889 25.4615 31.7889 19.794C31.7889 19.6044 31.7824 19.4213 31.7732 19.2395C32.6245 18.6354 33.3398 17.8808 33.9231 17.0125Z" fill="white"/>
</svg>
